<?xml version="1.0" standalone="no"?><!DOCTYPE svg PUBLIC "-//W3C//DTD SVG 1.1//EN" "http://www.w3.org/Graphics/SVG/1.1/DTD/svg11.dtd"><svg t="1708008309640" class="icon" viewBox="0 0 1024 1024" version="1.1" xmlns="http://www.w3.org/2000/svg" p-id="5627" xmlns:xlink="http://www.w3.org/1999/xlink" width="200" height="200"><path d="M716.8 512q0 5.024-0.24 10.048-0.248 5.024-0.744 10.024-0.496 5.008-1.232 9.976-0.736 4.976-1.72 9.904-0.976 4.936-2.2 9.808-1.224 4.88-2.68 9.688-1.456 4.816-3.152 9.544-1.696 4.736-3.616 9.384-1.92 4.64-4.08 9.184-2.144 4.544-4.512 8.984-2.376 4.432-4.96 8.744-2.584 4.312-5.376 8.496-2.8 4.176-5.792 8.216-2.992 4.04-6.184 7.92-3.184 3.888-6.56 7.616-3.376 3.728-6.936 7.28-3.552 3.552-7.28 6.928-3.72 3.376-7.608 6.568-3.888 3.192-7.92 6.184-4.048 2.992-8.224 5.792-4.184 2.792-8.496 5.376-4.312 2.584-8.744 4.96-4.432 2.36-8.976 4.512-4.544 2.152-9.192 4.08-4.64 1.92-9.376 3.608-4.736 1.696-9.544 3.16-4.816 1.456-9.688 2.68-4.88 1.216-9.808 2.2-4.936 0.984-9.904 1.72-4.976 0.736-9.976 1.232-5.008 0.488-10.032 0.736-5.016 0.24-10.048 0.24-5.024 0-10.048-0.24-5.016-0.24-10.024-0.736-5-0.496-9.976-1.232-4.976-0.736-9.904-1.72t-9.808-2.2q-4.88-1.224-9.68-2.68-4.816-1.464-9.552-3.16-4.736-1.688-9.376-3.616-4.64-1.92-9.192-4.072-4.544-2.152-8.976-4.52-4.44-2.368-8.752-4.96-4.312-2.576-8.488-5.368-4.184-2.8-8.224-5.792-4.032-2.992-7.92-6.184t-7.616-6.56q-3.72-3.384-7.28-6.936-3.552-3.552-6.928-7.28t-6.56-7.616q-3.2-3.88-6.192-7.92t-5.784-8.216q-2.8-4.184-5.376-8.496-2.592-4.32-4.96-8.744-2.368-4.44-4.52-8.984-2.144-4.544-4.072-9.184-1.92-4.648-3.616-9.384-1.696-4.728-3.152-9.544-1.464-4.808-2.68-9.68-1.224-4.88-2.208-9.816-0.976-4.928-1.72-9.904-0.736-4.968-1.224-9.976-0.496-5-0.744-10.024-0.24-5.024-0.24-10.048t0.24-10.048q0.248-5.024 0.744-10.024 0.488-5.008 1.224-9.976 0.744-4.976 1.72-9.904 0.984-4.936 2.208-9.808 1.216-4.88 2.68-9.688 1.456-4.816 3.152-9.544 1.696-4.736 3.616-9.384 1.92-4.64 4.08-9.184 2.144-4.552 4.512-8.984 2.368-4.432 4.96-8.744 2.584-4.32 5.376-8.496 2.792-4.176 5.784-8.216 3-4.04 6.184-7.92 3.192-3.888 6.568-7.616 3.376-3.728 6.928-7.28 3.56-3.552 7.28-6.928 3.728-3.376 7.616-6.568 3.888-3.192 7.92-6.184 4.04-3 8.224-5.792 4.176-2.792 8.488-5.376 4.32-2.584 8.752-4.96 4.432-2.368 8.976-4.512 4.544-2.152 9.192-4.08 4.64-1.92 9.376-3.616 4.736-1.688 9.544-3.152 4.808-1.456 9.688-2.68 4.88-1.224 9.808-2.2 4.928-0.984 9.904-1.72t9.976-1.232q5.008-0.488 10.024-0.736 5.024-0.248 10.048-0.248 5.032 0 10.048 0.24 5.024 0.256 10.032 0.744 5 0.496 9.976 1.232 4.968 0.736 9.904 1.72 4.928 0.976 9.808 2.2 4.88 1.224 9.68 2.68 4.816 1.464 9.552 3.152 4.728 1.696 9.376 3.624 4.64 1.92 9.192 4.072 4.544 2.144 8.976 4.52 4.432 2.368 8.744 4.96 4.32 2.576 8.496 5.368 4.176 2.8 8.216 5.792 4.04 2.992 7.92 6.184 3.896 3.192 7.616 6.56 3.728 3.384 7.28 6.936 3.56 3.552 6.936 7.28t6.56 7.608q3.2 3.888 6.184 7.928 3 4.04 5.792 8.216 2.8 4.184 5.376 8.496 2.584 4.312 4.96 8.744 2.368 4.432 4.512 8.984 2.16 4.544 4.08 9.184t3.616 9.384q1.696 4.728 3.152 9.544 1.456 4.808 2.68 9.68 1.224 4.88 2.2 9.816 0.984 4.928 1.72 9.904 0.736 4.968 1.232 9.976 0.496 5 0.744 10.024 0.24 5.024 0.24 10.048z" fill="#5459F6" p-id="5628"></path><path d="M512 307.2c113.112 0 204.8 91.696 204.8 204.8 0 113.104-91.688 204.8-204.8 204.8-113.104 0-204.8-91.696-204.8-204.8 0-113.104 91.696-204.8 204.8-204.8z m0 30.72c-96.144 0-174.08 77.936-174.08 174.08S415.856 686.08 512 686.08 686.08 608.144 686.08 512 608.144 337.92 512 337.92z" fill="#000000" p-id="5629"></path><path d="M512 209.92c166.84 0 302.08 135.24 302.08 302.08 0 166.832-135.24 302.08-302.08 302.08-166.832 0-302.08-135.248-302.08-302.08 0-166.84 135.248-302.08 302.08-302.08z m0 30.72c-149.864 0-271.36 121.488-271.36 271.36 0 149.864 121.496 271.36 271.36 271.36 149.872 0 271.36-121.496 271.36-271.36 0-149.872-121.488-271.36-271.36-271.36z" fill="#000000" p-id="5630"></path><path d="M512 30.72c265.8 0 481.28 215.472 481.28 481.28 0 265.8-215.48 481.28-481.28 481.28-265.808 0-481.28-215.48-481.28-481.28C30.72 246.192 246.192 30.72 512 30.72z m0 30.72C263.16 61.44 61.44 263.16 61.44 512S263.16 962.56 512 962.56c248.832 0 450.56-201.728 450.56-450.56 0-248.84-201.728-450.56-450.56-450.56z" fill="#000000" p-id="5631"></path><path d="M926.72 184.32q0 2.136-0.104 4.272t-0.32 4.264q-0.208 2.12-0.52 4.24-0.312 2.112-0.728 4.208t-0.936 4.16q-0.52 2.08-1.136 4.12-0.624 2.048-1.344 4.064-0.72 2.008-1.536 3.984-0.816 1.976-1.736 3.904-0.912 1.928-1.92 3.816-1.008 1.88-2.104 3.72-1.096 1.832-2.288 3.6-1.184 1.784-2.456 3.496-1.28 1.72-2.632 3.368-1.352 1.656-2.784 3.24-1.44 1.584-2.952 3.088-1.504 1.52-3.088 2.952-1.584 1.44-3.24 2.792-1.648 1.352-3.36 2.624-1.72 1.28-3.496 2.464t-3.616 2.28q-1.832 1.104-3.712 2.104-1.888 1.008-3.816 1.92-1.936 0.92-3.904 1.736-1.976 0.816-3.992 1.536-2.008 0.72-4.056 1.344-2.04 0.616-4.112 1.136-2.08 0.52-4.168 0.936-2.096 0.416-4.216 0.728-2.112 0.32-4.24 0.528-2.12 0.208-4.256 0.32-2.136 0.096-4.272 0.096t-4.272-0.104q-2.136-0.104-4.256-0.32-2.128-0.2-4.24-0.52-2.12-0.312-4.216-0.72-2.088-0.424-4.16-0.944-2.08-0.52-4.12-1.136-2.048-0.624-4.056-1.344-2.016-0.72-3.992-1.536-1.968-0.816-3.904-1.728-1.928-0.92-3.816-1.92-1.88-1.008-3.712-2.112-1.84-1.096-3.616-2.28-1.776-1.192-3.488-2.464-1.72-1.272-3.368-2.624-1.656-1.36-3.232-2.8-1.584-1.432-3.096-2.944-1.52-1.504-2.944-3.088-1.44-1.584-2.8-3.24-1.352-1.648-2.624-3.36-1.272-1.72-2.456-3.496-1.192-1.776-2.288-3.608-1.096-1.84-2.104-3.72-1.008-1.888-1.92-3.816-0.92-1.928-1.736-3.904t-1.536-3.984q-0.72-2.016-1.336-4.064-0.624-2.04-1.144-4.112-0.52-2.08-0.936-4.168-0.416-2.096-0.728-4.208-0.32-2.12-0.528-4.24-0.208-2.128-0.312-4.264-0.104-2.136-0.104-4.272t0.104-4.272q0.104-2.128 0.32-4.256 0.208-2.128 0.52-4.24 0.312-2.112 0.728-4.208t0.936-4.168q0.52-2.08 1.144-4.12 0.616-2.048 1.336-4.056 0.72-2.016 1.536-3.984 0.816-1.976 1.736-3.912 0.912-1.928 1.92-3.816 1.008-1.88 2.104-3.712 1.096-1.84 2.288-3.608 1.184-1.784 2.456-3.496 1.28-1.72 2.632-3.368 1.36-1.656 2.792-3.232 1.432-1.584 2.944-3.096t3.096-2.944q1.576-1.44 3.232-2.8 1.648-1.352 3.36-2.624 1.72-1.272 3.496-2.456 1.784-1.192 3.616-2.288 1.832-1.096 3.712-2.104 1.888-1.008 3.816-1.92 1.936-0.912 3.904-1.736 1.976-0.816 3.992-1.536 2.008-0.72 4.056-1.336 2.04-0.624 4.112-1.144 2.08-0.52 4.168-0.936 2.096-0.416 4.216-0.728 2.112-0.32 4.24-0.52 2.12-0.216 4.256-0.32 2.136-0.104 4.272-0.104t4.272 0.104q2.136 0.104 4.256 0.32 2.128 0.208 4.24 0.52 2.12 0.32 4.216 0.728 2.096 0.416 4.16 0.936 2.08 0.52 4.12 1.144 2.048 0.616 4.056 1.336 2.016 0.72 3.992 1.536 1.968 0.824 3.904 1.736 1.928 0.912 3.816 1.92 1.88 1.008 3.712 2.104 1.84 1.096 3.616 2.288 1.776 1.184 3.488 2.456 1.72 1.28 3.368 2.632 1.656 1.36 3.24 2.792 1.584 1.432 3.088 2.944 1.52 1.512 2.952 3.096 1.432 1.576 2.784 3.232 1.36 1.648 2.632 3.36 1.28 1.72 2.456 3.504 1.192 1.776 2.288 3.6 1.096 1.84 2.104 3.72 1.008 1.888 1.92 3.816 0.92 1.936 1.736 3.912 0.816 1.968 1.536 3.984 0.72 2.008 1.344 4.056 0.616 2.04 1.136 4.12 0.52 2.072 0.936 4.16 0.416 2.104 0.728 4.216 0.32 2.112 0.528 4.24 0.208 2.128 0.312 4.256 0.104 2.136 0.104 4.272z" fill="#5459F6" p-id="5632"></path><path d="M839.68 97.28c48.08 0 87.04 38.968 87.04 87.04 0 48.08-38.96 87.04-87.04 87.04-48.072 0-87.04-38.96-87.04-87.04 0-48.072 38.968-87.04 87.04-87.04z m0 15.36a71.68 71.68 0 1 0 0 143.36 71.68 71.68 0 0 0 0-143.36z" fill="#000000" p-id="5633"></path><path d="M209.92 184.32q0 2.136-0.104 4.272t-0.312 4.264q-0.208 2.12-0.52 4.24-0.32 2.112-0.736 4.208t-0.936 4.16q-0.52 2.08-1.136 4.12-0.624 2.048-1.344 4.064-0.72 2.008-1.536 3.984-0.816 1.976-1.728 3.904t-1.92 3.816q-1.008 1.88-2.104 3.72-1.104 1.832-2.288 3.6-1.192 1.784-2.464 3.496-1.272 1.72-2.624 3.368-1.36 1.656-2.792 3.24-1.44 1.584-2.944 3.088-1.512 1.52-3.096 2.952-1.584 1.44-3.232 2.792-1.656 1.352-3.368 2.624-1.72 1.28-3.496 2.464t-3.608 2.28q-1.84 1.104-3.72 2.104-1.88 1.008-3.816 1.92-1.928 0.92-3.904 1.736t-3.984 1.536q-2.016 0.72-4.056 1.344-2.048 0.616-4.12 1.136-2.072 0.52-4.16 0.936-2.104 0.416-4.216 0.728-2.112 0.32-4.24 0.528-2.128 0.208-4.264 0.32-2.128 0.096-4.272 0.096-2.136 0-4.264-0.104-2.136-0.104-4.264-0.32-2.128-0.2-4.24-0.52-2.112-0.312-4.208-0.72-2.096-0.424-4.168-0.944-2.08-0.52-4.12-1.136-2.04-0.624-4.056-1.344-2.008-0.72-3.984-1.536-1.976-0.816-3.904-1.728-1.936-0.92-3.816-1.92-1.888-1.008-3.72-2.112-1.84-1.096-3.608-2.28-1.776-1.192-3.496-2.464-1.712-1.272-3.36-2.624-1.656-1.36-3.24-2.8-1.584-1.432-3.096-2.944-1.512-1.504-2.944-3.088-1.44-1.584-2.792-3.24-1.36-1.648-2.624-3.36-1.28-1.72-2.464-3.496t-2.288-3.608q-1.096-1.84-2.104-3.72-1.008-1.888-1.92-3.816-0.912-1.928-1.728-3.904-0.824-1.976-1.544-3.984-0.72-2.016-1.336-4.064-0.624-2.04-1.136-4.112-0.52-2.08-0.936-4.168-0.424-2.096-0.736-4.208-0.312-2.12-0.52-4.24-0.208-2.128-0.32-4.264-0.104-2.136-0.104-4.272t0.112-4.272q0.104-2.128 0.312-4.256 0.208-2.128 0.52-4.24 0.32-2.112 0.736-4.208t0.936-4.168q0.512-2.08 1.136-4.12 0.616-2.048 1.336-4.056 0.72-2.016 1.544-3.984 0.816-1.976 1.728-3.912 0.912-1.928 1.92-3.816 1.008-1.88 2.104-3.712 1.104-1.84 2.288-3.608 1.184-1.784 2.464-3.496 1.272-1.72 2.624-3.368 1.36-1.656 2.792-3.232 1.44-1.584 2.944-3.096 1.512-1.512 3.096-2.944 1.584-1.44 3.232-2.8 1.656-1.352 3.368-2.624 1.72-1.272 3.496-2.456 1.776-1.192 3.608-2.288 1.84-1.096 3.72-2.104 1.88-1.008 3.816-1.92 1.928-0.912 3.904-1.736 1.976-0.816 3.984-1.536 2.016-0.72 4.056-1.336 2.048-0.624 4.12-1.144 2.072-0.52 4.16-0.936 2.104-0.416 4.216-0.728 2.112-0.32 4.24-0.52 2.128-0.216 4.264-0.32 2.128-0.104 4.264-0.104 2.144 0 4.272 0.104 2.136 0.104 4.264 0.32 2.128 0.208 4.24 0.52 2.112 0.32 4.208 0.728 2.096 0.416 4.168 0.936 2.08 0.52 4.12 1.144 2.04 0.616 4.056 1.336 2.008 0.72 3.984 1.536 1.976 0.824 3.904 1.736 1.936 0.912 3.816 1.92 1.888 1.008 3.72 2.104 1.832 1.096 3.608 2.288 1.776 1.184 3.496 2.456 1.712 1.28 3.36 2.632 1.656 1.36 3.24 2.792 1.584 1.432 3.096 2.944t2.944 3.096q1.44 1.576 2.792 3.232 1.36 1.648 2.624 3.36 1.28 1.72 2.464 3.504 1.184 1.776 2.288 3.6 1.096 1.84 2.104 3.72 1.008 1.888 1.92 3.816 0.912 1.936 1.728 3.912 0.816 1.968 1.536 3.984 0.72 2.008 1.344 4.056 0.616 2.04 1.136 4.12 0.52 2.072 0.936 4.16 0.416 2.104 0.736 4.216 0.312 2.112 0.52 4.24 0.208 2.128 0.32 4.256 0.096 2.136 0.096 4.272z" fill="#5459F6" p-id="5634"></path><path d="M122.88 97.28c48.08 0 87.04 38.968 87.04 87.04 0 48.08-38.96 87.04-87.04 87.04-48.064 0-87.04-38.96-87.04-87.04 0-48.072 38.976-87.04 87.04-87.04z m0 15.36a71.68 71.68 0 1 0 0 143.36 71.68 71.68 0 0 0 0-143.36z" fill="#000000" p-id="5635"></path><path d="M286.72 404.48q0 1.128-0.056 2.256-0.056 1.136-0.16 2.256-0.112 1.128-0.28 2.248-0.16 1.12-0.384 2.232-0.224 1.104-0.496 2.2-0.28 1.104-0.608 2.184-0.32 1.08-0.704 2.144-0.384 1.064-0.816 2.112-0.432 1.04-0.92 2.072-0.48 1.016-1.016 2.016-0.528 1-1.12 1.968-0.576 0.968-1.2 1.912-0.632 0.936-1.304 1.848t-1.392 1.784q-0.72 0.88-1.48 1.712-0.76 0.84-1.56 1.64-0.8 0.8-1.64 1.56-0.832 0.76-1.712 1.472-0.872 0.72-1.776 1.392-0.912 0.68-1.856 1.304-0.936 0.632-1.904 1.208-0.976 0.584-1.968 1.12-1 0.528-2.024 1.016-1.024 0.48-2.064 0.912-1.048 0.44-2.112 0.816-1.064 0.384-2.152 0.712-1.08 0.32-2.176 0.6-1.096 0.28-2.208 0.496-1.112 0.224-2.232 0.392-1.12 0.16-2.24 0.272-1.12 0.112-2.256 0.16-1.128 0.064-2.264 0.064-1.128 0-2.256-0.056-1.136-0.056-2.256-0.16-1.128-0.12-2.24-0.28-1.12-0.168-2.24-0.392-1.104-0.216-2.2-0.496-1.096-0.272-2.184-0.6-1.08-0.328-2.144-0.712-1.064-0.376-2.112-0.816-1.04-0.432-2.064-0.912-1.024-0.48-2.024-1.016t-1.968-1.12q-0.968-0.576-1.912-1.2-0.936-0.64-1.84-1.312-0.912-0.672-1.792-1.392-0.88-0.72-1.712-1.472-0.84-0.76-1.64-1.56-0.8-0.8-1.56-1.64-0.76-0.84-1.472-1.712-0.72-0.88-1.392-1.784-0.672-0.912-1.304-1.848-0.632-0.944-1.208-1.912-0.584-0.968-1.12-1.968-0.528-1-1.016-2.016-0.48-1.024-0.912-2.072-0.432-1.04-0.816-2.112-0.384-1.064-0.712-2.144-0.32-1.08-0.6-2.184-0.272-1.096-0.496-2.2-0.224-1.12-0.384-2.232-0.168-1.12-0.28-2.24-0.112-1.128-0.16-2.264-0.064-1.12-0.064-2.256 0-1.136 0.056-2.264t0.168-2.256q0.112-1.12 0.28-2.24 0.16-1.12 0.384-2.232t0.496-2.208q0.272-1.096 0.6-2.176 0.328-1.088 0.712-2.152 0.384-1.064 0.816-2.104 0.432-1.048 0.912-2.072 0.48-1.024 1.016-2.016 0.536-1 1.12-1.968 0.576-0.976 1.208-1.92 0.632-0.936 1.304-1.84 0.672-0.912 1.392-1.784 0.72-0.88 1.472-1.712 0.76-0.84 1.56-1.64 0.8-0.8 1.64-1.56 0.84-0.76 1.712-1.48 0.88-0.72 1.784-1.392 0.912-0.672 1.848-1.296 0.944-0.632 1.92-1.216 0.96-0.576 1.96-1.12 1-0.528 2.024-1.008 1.016-0.48 2.064-0.92 1.04-0.432 2.112-0.808 1.064-0.384 2.144-0.72 1.088-0.32 2.184-0.6 1.096-0.272 2.208-0.496 1.104-0.216 2.224-0.384 1.12-0.16 2.24-0.272 1.128-0.112 2.264-0.168 1.12-0.056 2.256-0.056 1.136 0 2.264 0.056t2.256 0.16q1.12 0.112 2.24 0.28 1.12 0.16 2.232 0.384t2.208 0.496q1.096 0.28 2.176 0.608 1.088 0.32 2.152 0.712 1.064 0.376 2.112 0.808 1.04 0.432 2.064 0.92 1.024 0.48 2.024 1.016 0.992 0.536 1.968 1.12 0.96 0.576 1.904 1.2 0.944 0.64 1.856 1.304 0.904 0.68 1.776 1.392 0.88 0.72 1.712 1.48 0.84 0.76 1.64 1.56 0.8 0.8 1.56 1.64 0.76 0.832 1.48 1.712 0.72 0.872 1.392 1.784 0.672 0.904 1.304 1.84 0.624 0.944 1.2 1.92 0.592 0.96 1.12 1.968 0.536 0.992 1.016 2.016t0.92 2.072q0.432 1.04 0.816 2.104 0.376 1.064 0.704 2.152 0.328 1.08 0.608 2.176 0.272 1.096 0.496 2.208 0.216 1.112 0.384 2.232 0.16 1.12 0.28 2.24 0.104 1.12 0.16 2.256 0.056 1.128 0.056 2.264z" fill="#5459F6" p-id="5636"></path><path d="M240.64 358.4a46.08 46.08 0 1 1 0 92.16 46.08 46.08 0 0 1 0-92.16z m0 15.36a30.72 30.72 0 1 0 0 61.44 30.72 30.72 0 0 0 0-61.44z" fill="#000000" p-id="5637"></path><path d="M814.08 642.56q0 0.944-0.048 1.888-0.04 0.936-0.136 1.872-0.096 0.944-0.232 1.872-0.136 0.936-0.32 1.856-0.184 0.928-0.416 1.84-0.224 0.92-0.504 1.816-0.272 0.904-0.584 1.792-0.32 0.888-0.68 1.76-0.36 0.872-0.768 1.72-0.4 0.856-0.848 1.68-0.44 0.84-0.928 1.648-0.48 0.8-1.008 1.592-0.52 0.784-1.08 1.536-0.56 0.76-1.16 1.488-0.6 0.728-1.232 1.424-0.64 0.704-1.304 1.368-0.664 0.664-1.36 1.304-0.704 0.632-1.432 1.224-0.72 0.6-1.48 1.16-0.76 0.56-1.544 1.088t-1.6 1.008q-0.8 0.48-1.632 0.928-0.832 0.448-1.68 0.848-0.856 0.4-1.728 0.768-0.872 0.36-1.76 0.672-0.88 0.32-1.784 0.592-0.904 0.28-1.824 0.504-0.912 0.232-1.84 0.416-0.92 0.184-1.856 0.32-0.928 0.136-1.864 0.232-0.944 0.088-1.88 0.136-0.944 0.048-1.888 0.048t-1.88-0.048q-0.944-0.048-1.88-0.136-0.944-0.096-1.872-0.232-0.936-0.136-1.856-0.32-0.928-0.184-1.84-0.416-0.912-0.224-1.816-0.504-0.904-0.272-1.792-0.592-0.88-0.32-1.76-0.672-0.872-0.36-1.72-0.768-0.856-0.4-1.68-0.848-0.832-0.44-1.648-0.928-0.8-0.48-1.592-1.008-0.784-0.52-1.536-1.088-0.76-0.56-1.488-1.16-0.728-0.592-1.424-1.224-0.704-0.64-1.368-1.304-0.664-0.664-1.296-1.36-0.64-0.704-1.232-1.432-0.6-0.728-1.16-1.488-0.56-0.752-1.088-1.536-0.52-0.784-1.008-1.6-0.48-0.8-0.928-1.632-0.448-0.832-0.848-1.68-0.4-0.856-0.76-1.728-0.368-0.872-0.68-1.76-0.32-0.88-0.592-1.792-0.272-0.896-0.504-1.816-0.232-0.912-0.416-1.84-0.184-0.92-0.32-1.856-0.136-0.928-0.232-1.872-0.088-0.936-0.136-1.872-0.048-0.944-0.048-1.888t0.048-1.888q0.048-0.936 0.136-1.872 0.096-0.944 0.24-1.872 0.128-0.936 0.32-1.856 0.176-0.928 0.408-1.84 0.232-0.92 0.504-1.816 0.272-0.904 0.592-1.792 0.32-0.888 0.68-1.76 0.36-0.872 0.76-1.72 0.4-0.856 0.848-1.68 0.44-0.84 0.928-1.648 0.48-0.8 1.008-1.592 0.528-0.784 1.088-1.536 0.56-0.76 1.16-1.488 0.592-0.728 1.232-1.424 0.632-0.704 1.296-1.368 0.664-0.664 1.36-1.304 0.704-0.632 1.44-1.224 0.72-0.6 1.48-1.16 0.752-0.56 1.536-1.088 0.784-0.52 1.6-1.008 0.8-0.48 1.632-0.928 0.832-0.448 1.68-0.848 0.856-0.4 1.728-0.768 0.88-0.36 1.76-0.672 0.888-0.32 1.792-0.592 0.904-0.272 1.816-0.504 0.912-0.232 1.84-0.416 0.92-0.184 1.856-0.32 0.928-0.136 1.872-0.232 0.936-0.088 1.88-0.136 0.936-0.048 1.88-0.048 0.944 0 1.888 0.048 0.936 0.048 1.88 0.136 0.936 0.096 1.864 0.232 0.936 0.136 1.864 0.32 0.92 0.184 1.84 0.416 0.912 0.232 1.816 0.504 0.896 0.272 1.784 0.592 0.888 0.32 1.76 0.672 0.872 0.36 1.72 0.768 0.856 0.4 1.68 0.848 0.84 0.44 1.648 0.928 0.8 0.48 1.592 1.008 0.784 0.52 1.544 1.088 0.752 0.56 1.48 1.16 0.728 0.592 1.432 1.224 0.696 0.64 1.36 1.304 0.672 0.664 1.304 1.36 0.632 0.704 1.232 1.432 0.592 0.728 1.16 1.488 0.56 0.752 1.08 1.536 0.528 0.784 1.008 1.6 0.48 0.8 0.928 1.632 0.448 0.832 0.848 1.68 0.4 0.856 0.768 1.728 0.36 0.872 0.68 1.76 0.32 0.88 0.584 1.792 0.28 0.896 0.504 1.816 0.232 0.912 0.416 1.84 0.184 0.92 0.32 1.856 0.136 0.928 0.232 1.872 0.096 0.936 0.136 1.872 0.048 0.944 0.048 1.888z" fill="#5459F6" p-id="5638"></path><path d="M775.68 604.16a38.4 38.4 0 1 1 0.072 76.8 38.4 38.4 0 0 1-0.08-76.8z m0 15.36a23.04 23.04 0 1 0 0 46.08 23.04 23.04 0 0 0 0-46.08z" fill="#000000" p-id="5639"></path><path d="M419.84 919.04q0 2.576-0.128 5.152-0.12 2.576-0.376 5.136-0.248 2.56-0.632 5.12-0.376 2.544-0.88 5.072t-1.128 5.024q-0.624 2.504-1.376 4.96-0.744 2.472-1.616 4.896-0.864 2.424-1.848 4.808-0.992 2.384-2.088 4.712-1.104 2.328-2.32 4.6-1.216 2.272-2.536 4.48-1.328 2.216-2.76 4.352-1.432 2.144-2.96 4.216-1.544 2.072-3.176 4.056-1.632 2-3.36 3.904-1.736 1.912-3.56 3.728-1.816 1.824-3.728 3.56-1.912 1.728-3.904 3.36-1.984 1.632-4.056 3.168-2.072 1.536-4.216 2.968-2.136 1.44-4.352 2.76-2.208 1.32-4.48 2.536-2.272 1.216-4.6 2.32-2.328 1.096-4.712 2.08-2.384 0.992-4.8 1.856-2.432 0.872-4.896 1.616-2.464 0.752-4.96 1.376-2.504 0.624-5.04 1.128-2.52 0.504-5.072 0.88-2.544 0.384-5.112 0.64-2.56 0.24-5.136 0.368t-5.152 0.128q-2.576 0-5.152-0.128-2.568-0.12-5.136-0.376-2.56-0.248-5.112-0.632-2.544-0.376-5.072-0.88t-5.032-1.12q-2.496-0.64-4.96-1.384-2.472-0.744-4.896-1.616-2.424-0.864-4.8-1.848-2.384-0.992-4.72-2.088-2.32-1.104-4.592-2.32-2.28-1.216-4.48-2.536-2.216-1.328-4.36-2.76-2.144-1.432-4.208-2.96-2.072-1.544-4.064-3.176-1.992-1.632-3.904-3.36-1.904-1.736-3.728-3.56-1.824-1.816-3.552-3.728-1.728-1.912-3.36-3.904-1.64-1.984-3.176-4.056-1.536-2.072-2.96-4.216-1.44-2.136-2.76-4.352-1.328-2.208-2.544-4.48-1.208-2.272-2.32-4.6-1.096-2.328-2.08-4.712t-1.856-4.8q-0.864-2.432-1.616-4.896-0.744-2.464-1.376-4.96-0.624-2.504-1.12-5.04-0.512-2.52-0.88-5.072-0.384-2.544-0.64-5.112-0.248-2.56-0.376-5.136t-0.128-5.152q0-2.576 0.128-5.152 0.128-2.568 0.376-5.136 0.256-2.56 0.64-5.112 0.368-2.544 0.88-5.072 0.496-2.528 1.12-5.032 0.632-2.496 1.376-4.96 0.752-2.464 1.616-4.896 0.872-2.424 1.856-4.8 0.984-2.384 2.08-4.72 1.112-2.32 2.32-4.592 1.216-2.28 2.544-4.48 1.32-2.216 2.752-4.36 1.44-2.144 2.968-4.208 1.536-2.072 3.168-4.064 1.64-1.992 3.368-3.904 1.728-1.904 3.552-3.728 1.824-1.824 3.728-3.552 1.912-1.728 3.904-3.36 1.992-1.64 4.064-3.176 2.064-1.536 4.208-2.96 2.144-1.44 4.352-2.76 2.208-1.328 4.48-2.544 2.28-1.208 4.608-2.32 2.32-1.096 4.704-2.08t4.808-1.856q2.424-0.864 4.896-1.616 2.464-0.744 4.96-1.376 2.504-0.624 5.032-1.12 2.528-0.504 5.072-0.88 2.552-0.384 5.12-0.64 2.56-0.248 5.128-0.376 2.576-0.128 5.152-0.128t5.152 0.128q2.576 0.128 5.136 0.376 2.56 0.256 5.12 0.64 2.544 0.376 5.072 0.88 2.528 0.496 5.024 1.12 2.504 0.632 4.96 1.376 2.472 0.752 4.896 1.616 2.424 0.872 4.808 1.856 2.384 0.984 4.712 2.08 2.32 1.112 4.6 2.32 2.272 1.216 4.48 2.544 2.216 1.32 4.352 2.752 2.144 1.44 4.216 2.968 2.072 1.536 4.056 3.168 2 1.64 3.904 3.368 1.912 1.728 3.728 3.552 1.824 1.824 3.56 3.728 1.728 1.912 3.36 3.904t3.168 4.064q1.536 2.064 2.968 4.208t2.76 4.352q1.32 2.208 2.536 4.48 1.216 2.28 2.32 4.608 1.096 2.32 2.08 4.704 0.992 2.384 1.856 4.808 0.872 2.432 1.616 4.896 0.752 2.464 1.376 4.96 0.624 2.504 1.128 5.032 0.504 2.528 0.88 5.072 0.384 2.552 0.632 5.12 0.256 2.56 0.376 5.128 0.128 2.576 0.128 5.152z" fill="#5459F6" p-id="5640"></path><path d="M314.88 814.08c57.968 0 104.96 46.992 104.96 104.96 0 57.968-46.992 104.96-104.96 104.96-57.968 0-104.96-46.992-104.96-104.96 0-57.968 46.992-104.96 104.96-104.96z m0 15.36c-49.48 0-89.6 40.12-89.6 89.6 0 49.488 40.12 89.6 89.6 89.6 49.488 0 89.6-40.112 89.6-89.6 0-49.48-40.112-89.6-89.6-89.6z" fill="#000000" p-id="5641"></path><path d="M860.16 875.52q0 1.512-0.08 3.016-0.064 1.504-0.216 3.008-0.144 1.504-0.368 2.992-0.224 1.496-0.512 2.976-0.296 1.472-0.664 2.936-0.368 1.464-0.8 2.912-0.44 1.44-0.952 2.864-0.504 1.416-1.08 2.808-0.584 1.392-1.224 2.76-0.64 1.36-1.36 2.696-0.712 1.328-1.48 2.624-0.776 1.288-1.616 2.544-0.84 1.256-1.736 2.464-0.904 1.216-1.856 2.376-0.96 1.168-1.968 2.288-1.016 1.12-2.08 2.184-1.072 1.064-2.184 2.08-1.12 1.008-2.288 1.968-1.16 0.96-2.376 1.856-1.208 0.896-2.464 1.736t-2.552 1.616q-1.288 0.776-2.624 1.48-1.328 0.72-2.688 1.36-1.36 0.64-2.76 1.224-1.392 0.576-2.816 1.08-1.416 0.512-2.856 0.952-1.44 0.432-2.912 0.8-1.464 0.368-2.944 0.664-1.472 0.288-2.968 0.512-1.488 0.224-2.992 0.368-1.504 0.152-3.008 0.224-1.504 0.08-3.016 0.08-1.504 0-3.016-0.08-1.504-0.08-3.008-0.224-1.496-0.144-2.992-0.368-1.488-0.224-2.968-0.512-1.48-0.296-2.944-0.664-1.464-0.368-2.904-0.8-1.44-0.44-2.864-0.952-1.424-0.504-2.816-1.08-1.392-0.584-2.752-1.224-1.36-0.64-2.696-1.36-1.328-0.704-2.624-1.48t-2.552-1.616q-1.248-0.84-2.464-1.736-1.208-0.896-2.376-1.856-1.168-0.96-2.28-1.968-1.12-1.016-2.184-2.08-1.072-1.064-2.08-2.184-1.016-1.12-1.976-2.288-0.96-1.16-1.848-2.376-0.904-1.208-1.744-2.464-0.832-1.256-1.608-2.544-0.776-1.296-1.488-2.624-0.712-1.336-1.36-2.696-0.64-1.36-1.216-2.76-0.576-1.392-1.088-2.808-0.504-1.424-0.944-2.864-0.44-1.44-0.8-2.912-0.368-1.464-0.664-2.936-0.296-1.48-0.52-2.976-0.216-1.488-0.368-2.992-0.144-1.504-0.224-3.008-0.072-1.504-0.072-3.016 0-1.504 0.08-3.016 0.072-1.504 0.216-3.008 0.152-1.496 0.368-2.992 0.224-1.488 0.52-2.968 0.296-1.48 0.656-2.944 0.368-1.464 0.8-2.904 0.448-1.44 0.96-2.864 0.504-1.424 1.08-2.816 0.576-1.392 1.224-2.752 0.64-1.36 1.352-2.696 0.712-1.328 1.488-2.624t1.608-2.552q0.84-1.248 1.744-2.464 0.896-1.208 1.848-2.376 0.96-1.168 1.976-2.28 1.008-1.12 2.08-2.184 1.064-1.072 2.184-2.08 1.12-1.016 2.28-1.968 1.168-0.96 2.376-1.856 1.216-0.904 2.464-1.736 1.256-0.84 2.552-1.616 1.296-0.776 2.624-1.488t2.696-1.36q1.36-0.64 2.752-1.216 1.392-0.576 2.816-1.088 1.416-0.504 2.864-0.944 1.44-0.44 2.904-0.8 1.464-0.368 2.944-0.664 1.48-0.296 2.968-0.52 1.496-0.216 2.992-0.368 1.504-0.144 3.008-0.216 1.512-0.08 3.016-0.08 1.512 0 3.016 0.08 1.504 0.072 3.008 0.216 1.504 0.152 2.992 0.368 1.496 0.224 2.968 0.52 1.48 0.296 2.944 0.656 1.464 0.368 2.912 0.808 1.44 0.44 2.856 0.944 1.424 0.512 2.816 1.088 1.392 0.576 2.76 1.224 1.36 0.64 2.688 1.36 1.336 0.704 2.624 1.48 1.296 0.776 2.552 1.616 1.256 0.832 2.464 1.736 1.216 0.896 2.376 1.856 1.168 0.96 2.288 1.968 1.12 1.008 2.184 2.08 1.064 1.064 2.08 2.184 1.008 1.12 1.968 2.28 0.96 1.168 1.856 2.376 0.896 1.216 1.736 2.464 0.84 1.256 1.616 2.552 0.768 1.296 1.48 2.624 0.72 1.328 1.36 2.696 0.64 1.36 1.224 2.752 0.576 1.392 1.08 2.816 0.512 1.416 0.944 2.864 0.44 1.44 0.808 2.904 0.368 1.464 0.664 2.944 0.288 1.48 0.512 2.968 0.224 1.496 0.368 2.992 0.152 1.504 0.224 3.008 0.08 1.512 0.08 3.016z" fill="#FFFFFF" p-id="5642"></path><path d="M798.72 814.08a61.44 61.44 0 1 1 0 122.88 61.44 61.44 0 0 1 0-122.88z m0 15.36a46.08 46.08 0 1 0 0 92.16 46.08 46.08 0 1 0 0-92.16z" fill="#000000" p-id="5643"></path><path d="M737.28 450.56a51.2 51.2 0 1 0 102.4 0 51.2 51.2 0 1 0-102.4 0z" fill="#FFFFFF" p-id="5644"></path><path d="M788.48 399.36a51.2 51.2 0 1 1 0 102.4 51.2 51.2 0 0 1 0-102.4z m0 15.36a35.84 35.84 0 1 0 0 71.68 35.84 35.84 0 0 0 0-71.68z" fill="#000000" p-id="5645"></path></svg>